{
  "source": "C:\\Users\\Peter\\Desktop\\stuff\\MIUN\\quantitative_research\\video_compression\\videos\\UVG\\ReadySteadyGo_1920x1080_120fps_420_8bit_YUV.y4m",
  "output": "C:\\Users\\Peter\\Desktop\\stuff\\MIUN\\quantitative_research\\video_compression\\compressed_videos\\UVG\\h264\\8\\ReadySteadyGo_1920x1080_120fps_420_8bit_YUV_h264.mp4",
  "codec": "h264",
  "ok": "[yuv4mpegpipe @ 000002aea7615ec0] Stream #0: not enough frames to estimate rate; consider increasing probesize\nInput #0, yuv4mpegpipe, from 'C:\\Users\\Peter\\Desktop\\stuff\\MIUN\\quantitative_research\\video_compression\\videos\\UVG\\ReadySteadyGo_1920x1080_120fps_420_8bit_YUV.y4m':\n  Duration: 00:00:05.00, start: 0.000000, bitrate: 2985989 kb/s\n  Stream #0:0: Video: rawvideo (I420 / 0x30323449), yuv420p(progressive), 1920x1080, 120 fps, 120 tbr, 120 tbn\n[out#0/mp4 @ 000002aea7619ac0] Codec AVOption b:a (set bitrate (in bits/s)) has not been used for any stream. The most likely reason is either wrong type (e.g. a video option with no video streams) or that it is a private option of some decoder which was not actually used for any stream.\nStream mapping:\n  Stream #0:0 -> #0:0 (rawvideo (native) -> h264 (libx264))\nPress [q] to stop, [?] for help\n[libx264 @ 000002aea761cb80] using cpu capabilities: MMX2 SSE2Fast SSSE3 SSE4.2 AVX FMA3 BMI2 AVX2\n[libx264 @ 000002aea761cb80] profile High, level 5.1, 4:2:0, 8-bit\n[libx264 @ 000002aea761cb80] 264 - core 165 r3222 b35605a - H.264/MPEG-4 AVC codec - Copyleft 2003-2025 - http://www.videolan.org/x264.html - options: cabac=1 ref=5 deblock=1:0:0 analyse=0x3:0x113 me=hex subme=8 psy=1 psy_rd=1.00:0.00 mixed_ref=1 me_range=16 chroma_me=1 trellis=2 8x8dct=1 cqm=0 deadzone=21,11 fast_pskip=1 chroma_qp_offset=-2 threads=18 lookahead_threads=3 sliced_threads=0 nr=0 decimate=1 interlaced=0 bluray_compat=0 constrained_intra=0 bframes=3 b_pyramid=2 b_adapt=1 b_bias=0 direct=3 weightb=1 open_gop=0 weightp=2 keyint=250 keyint_min=25 scenecut=40 intra_refresh=0 rc_lookahead=50 rc=cbr mbtree=1 bitrate=8000 ratetol=1.0 qcomp=0.60 qpmin=0 qpmax=69 qpstep=4 vbv_maxrate=8000 vbv_bufsize=8000 nal_hrd=none filler=0 ip_ratio=1.40 aq=1:1.00\nOutput #0, mp4, to 'C:\\Users\\Peter\\Desktop\\stuff\\MIUN\\quantitative_research\\video_compression\\compressed_videos\\UVG\\h264\\8\\ReadySteadyGo_1920x1080_120fps_420_8bit_YUV_h264.mp4':\n  Metadata:\n    encoder         : Lavf62.3.100\n  Stream #0:0: Video: h264 (avc1 / 0x31637661), yuv420p(tv, progressive), 1920x1080, q=2-31, 8000 kb/s, 120 fps, 15360 tbn\n    Metadata:\n      encoder         : Lavc62.11.100 libx264\n    Side data:\n      cpb: bitrate max/min/avg: 8000000/0/8000000 buffer size: 8000000 vbv_delay: N/A\nframe=    0 fps=0.0 q=0.0 size=       0KiB time=N/A bitrate=N/A speed=N/A elapsed=0:00:00.51    \nframe=    0 fps=0.0 q=0.0 size=       0KiB time=N/A bitrate=N/A speed=N/A elapsed=0:00:01.07    \nframe=   29 fps= 18 q=34.0 size=       0KiB time=00:00:00.21 bitrate=   1.8kbits/s speed=0.134x elapsed=0:00:01.62    \nframe=   55 fps= 25 q=34.0 size=     256KiB time=00:00:00.42 bitrate=4935.4kbits/s speed=0.195x elapsed=0:00:02.17    \nframe=   84 fps= 31 q=34.0 size=     512KiB time=00:00:00.68 bitrate=6138.6kbits/s speed=0.25x elapsed=0:00:02.73    \nframe=  107 fps= 33 q=34.0 size=     768KiB time=00:00:00.85 bitrate=7330.3kbits/s speed=0.262x elapsed=0:00:03.27    \nframe=  136 fps= 36 q=35.0 size=     768KiB time=00:00:01.10 bitrate=5719.9kbits/s speed=0.288x elapsed=0:00:03.82    \nframe=  160 fps= 37 q=36.0 size=    1024KiB time=00:00:01.31 bitrate=6371.4kbits/s speed=0.301x elapsed=0:00:04.38    \nframe=  181 fps= 37 q=36.0 size=    1280KiB time=00:00:01.49 bitrate=7029.8kbits/s speed=0.304x elapsed=0:00:04.89    \nframe=  207 fps= 38 q=36.0 size=    1536KiB time=00:00:01.70 bitrate=7401.9kbits/s speed=0.313x elapsed=0:00:05.43    \nframe=  224 fps= 37 q=36.0 size=    1792KiB time=00:00:01.85 bitrate=7935.4kbits/s speed=0.31x elapsed=0:00:05.97    \nframe=  245 fps= 38 q=37.0 size=    2048KiB time=00:00:01.99 bitrate=8423.9kbits/s speed=0.306x elapsed=0:00:06.49    \nframe=  270 fps= 38 q=38.0 size=    2304KiB time=00:00:02.20 bitrate=8547.1kbits/s speed=0.313x elapsed=0:00:07.05    \nframe=  292 fps= 38 q=38.0 size=    2560KiB time=00:00:02.41 bitrate=8678.0kbits/s speed=0.318x elapsed=0:00:07.60    \nframe=  315 fps= 39 q=38.0 size=    2816KiB time=00:00:02.60 bitrate=8844.4kbits/s speed=0.321x elapsed=0:00:08.12    \nframe=  339 fps= 39 q=39.0 size=    2816KiB time=00:00:02.80 bitrate=8214.5kbits/s speed=0.325x elapsed=0:00:08.64    \nframe=  362 fps= 39 q=39.0 size=    3072KiB time=00:00:03.00 bitrate=8388.7kbits/s speed=0.327x elapsed=0:00:09.16    \nframe=  383 fps= 40 q=39.0 size=    3328KiB time=00:00:03.17 bitrate=8586.9kbits/s speed=0.328x elapsed=0:00:09.68    \nframe=  405 fps= 40 q=40.0 size=    3584KiB time=00:00:03.35 bitrate=8742.6kbits/s speed=0.329x elapsed=0:00:10.20    \nframe=  431 fps= 40 q=39.0 size=    3840KiB time=00:00:03.56 bitrate=8819.9kbits/s speed=0.333x elapsed=0:00:10.72    \nframe=  453 fps= 40 q=40.0 size=    3840KiB time=00:00:03.75 bitrate=8370.1kbits/s speed=0.334x elapsed=0:00:11.25    \nframe=  481 fps= 41 q=39.0 size=    4096KiB time=00:00:03.97 bitrate=8441.5kbits/s speed=0.337x elapsed=0:00:11.78    \nframe=  510 fps= 41 q=39.0 size=    4352KiB time=00:00:04.23 bitrate=8421.7kbits/s speed=0.344x elapsed=0:00:12.31    \nframe=  539 fps= 42 q=39.0 size=    4608KiB time=00:00:04.44 bitrate=8498.9kbits/s speed=0.345x elapsed=0:00:12.86    \nframe=  571 fps= 43 q=38.0 size=    4864KiB time=00:00:04.71 bitrate=8448.0kbits/s speed=0.352x elapsed=0:00:13.41    \n[mp4 @ 000002aea7619bc0] Starting second pass: moving the moov atom to the beginning of the file\n[out#0/mp4 @ 000002aea7619ac0] video:5079KiB audio:0KiB subtitle:0KiB other streams:0KiB global headers:0KiB muxing overhead: 0.151101%\nframe=  600 fps= 44 q=-1.0 Lsize=    5087KiB time=00:00:04.98 bitrate=8362.3kbits/s speed=0.362x elapsed=0:00:13.75    \n[libx264 @ 000002aea761cb80] frame I:3     Avg QP:31.81  size: 68608\n[libx264 @ 000002aea761cb80] frame P:188   Avg QP:34.26  size: 15585\n[libx264 @ 000002aea761cb80] frame B:409   Avg QP:37.86  size:  5048\n[libx264 @ 000002aea761cb80] consecutive B-frames:  1.7% 16.7% 17.0% 64.7%\n[libx264 @ 000002aea761cb80] mb I  I16..4: 16.9% 70.1% 13.0%\n[libx264 @ 000002aea761cb80] mb P  I16..4:  1.0%  4.7%  0.4%  P16..4: 28.5%  5.9%  3.1%  0.0%  0.0%    skip:56.6%\n[libx264 @ 000002aea761cb80] mb B  I16..4:  0.0%  0.2%  0.0%  B16..8: 30.8%  2.7%  0.4%  direct: 0.5%  skip:65.4%  L0:40.3% L1:57.9% BI: 1.7%\n[libx264 @ 000002aea761cb80] 8x8 transform intra:76.3% inter:82.1%\n[libx264 @ 000002aea761cb80] direct mvs  spatial:97.6% temporal:2.4%\n[libx264 @ 000002aea761cb80] coded y,uvDC,uvAC intra: 52.7% 50.4% 15.9% inter: 4.1% 4.0% 0.1%\n[libx264 @ 000002aea761cb80] i16 v,h,dc,p: 41% 38%  4% 16%\n[libx264 @ 000002aea761cb80] i8 v,h,dc,ddl,ddr,vr,hd,vl,hu: 13%  9%  9%  8% 14% 14% 14%  9% 10%\n[libx264 @ 000002aea761cb80] i4 v,h,dc,ddl,ddr,vr,hd,vl,hu: 21% 12%  7%  7% 12% 12% 11%  7% 11%\n[libx264 @ 000002aea761cb80] i8c dc,h,v,p: 43% 26% 19% 12%\n[libx264 @ 000002aea761cb80] Weighted P-Frames: Y:0.0% UV:0.0%\n[libx264 @ 000002aea761cb80] ref P L0: 59.3% 17.6% 12.2%  5.1%  5.6%  0.2%\n[libx264 @ 000002aea761cb80] ref B L0: 91.8%  5.5%  2.1%  0.6%\n[libx264 @ 000002aea761cb80] ref B L1: 98.5%  1.5%\n[libx264 @ 000002aea761cb80] kb/s:8320.64\n",
  "seconds": 13.919495344161987,
  "probe_out": {}
}